<svg xmlns="http://www.w3.org/2000/svg"  viewBox="0 0 100 100" width="100px" height="100px"><path fill="#e85654" d="M83,27c0.57,0,1.02,0.47,1,1.04L81.83,78.3c-0.16,3.75-3.24,6.7-6.99,6.7H25.16	c-3.75,0-6.83-2.95-6.99-6.7L16,28.04C15.98,27.47,16.43,27,17,27h16c0-10.49,7.61-19,17-19s17,8.51,17,19H83z M38,27h24	c0-7.72-5.38-14-12-14S38,19.28,38,27z"/><path fill="#fff" d="M50.1,39.5c-4.93,0-8.5,2.73-8.5,6.5c0,3.75,3.31,5.23,8.75,7.22c5.51,2.02,11.75,4.3,11.75,11.55	c0,5.45-5.38,9.73-12.25,9.73c-6.06,0-11.05-3.71-12.28-4.71l1.69-2.5c0.05,0.05,4.89,4.21,10.59,4.21c5.1,0,9.25-3.02,9.25-6.73	c0-4.81-3.69-6.5-9.78-8.73C44.3,54.21,38.6,52.12,38.6,46c0-5.42,4.94-9.5,11.5-9.5c4.99,0,8.92,2.29,10.17,3.1	c0.23,0.15,0.3,0.45,0.15,0.68l-1.03,1.68c-0.15,0.23-0.45,0.31-0.69,0.16c-0.34-0.21-0.73-0.44-0.91-0.54	C56.24,40.74,53.38,39.5,50.1,39.5z"/><path fill="#1f212b" d="M74.84,86H25.16c-4.296,0-7.806-3.364-7.989-7.658l-2.17-50.259c-0.02-0.558,0.179-1.079,0.561-1.473	C15.941,26.217,16.452,26,17,26h15.022C32.493,15.435,40.376,7,50,7s17.507,8.435,17.978,19H83c0.548,0,1.059,0.217,1.438,0.61	c0.381,0.395,0.58,0.915,0.561,1.465l-2.17,50.268C82.646,82.636,79.136,86,74.84,86z M17,28l2.169,50.257	C19.307,81.478,21.938,84,25.16,84h49.68c3.222,0,5.854-2.522,5.991-5.743l2.17-50.26L83,28H67c-0.552,0-1-0.448-1-1	c0-9.925-7.178-18-16-18s-16,8.075-16,18c0,0.552-0.448,1-1,1H17z"/><path fill="#1f212b" d="M62,28H38c-0.552,0-1-0.448-1-1c0-8.271,5.832-15,13-15s13,6.729,13,15C63,27.552,62.552,28,62,28z M39.032,26h21.936C60.534,19.297,55.781,14,50,14S39.466,19.297,39.032,26z"/><path fill="#1f212b" d="M73.5,81h-1c-0.276,0-0.5-0.224-0.5-0.5s0.224-0.5,0.5-0.5h1c0.276,0,0.5,0.224,0.5,0.5	S73.776,81,73.5,81z"/><path fill="#1f212b" d="M69.5,81h-6c-0.276,0-0.5-0.224-0.5-0.5s0.224-0.5,0.5-0.5h6c0.276,0,0.5,0.224,0.5,0.5	S69.776,81,69.5,81z"/><path fill="#1f212b" d="M49.85,75c-6.184,0-11.205-3.691-12.596-4.822l-0.355-0.289l2.284-3.378l0.429,0.424	C39.643,66.961,44.328,71,49.85,71c4.825,0,8.75-2.795,8.75-6.23c0-4.326-3.027-5.908-9.452-8.26C44.226,54.715,38.1,52.482,38.1,46	c0-5.701,5.159-10,12-10c4.995,0,8.966,2.224,10.442,3.181c0.223,0.145,0.376,0.365,0.433,0.62c0.059,0.261,0.01,0.528-0.136,0.752	l-1.022,1.668c-0.311,0.479-0.914,0.614-1.381,0.323c-0.331-0.204-0.711-0.429-0.888-0.527C56.16,41.266,53.341,40,50.1,40	c-4.636,0-8,2.523-8,6c0,3.422,3.182,4.833,8.422,6.75C56.193,54.83,62.6,57.179,62.6,64.77C62.6,70.506,57,75,49.85,75z M38.245,69.685C39.756,70.839,44.395,74,49.85,74c6.589,0,11.75-4.054,11.75-9.23c0-6.893-6.059-9.114-11.404-11.074	C44.53,51.623,41.1,50.074,41.1,46c0-4.056,3.785-7,9-7c3.461,0,6.453,1.341,7.928,2.141c0.188,0.104,0.587,0.339,0.935,0.554	l1.031-1.676C58.597,39.112,54.828,37,50.1,37c-6.271,0-11,3.869-11,9c0,5.782,5.521,7.795,10.391,9.57	c6.29,2.303,10.109,4.071,10.109,9.2c0,3.987-4.374,7.23-9.75,7.23c-4.901,0-9.119-2.922-10.481-3.979L38.245,69.685z"/><path fill="#1f212b" d="M58.5,81H27.554c-2.954,0-5.368-2.312-5.495-5.263L20.8,46.521c-0.012-0.276,0.202-0.509,0.478-0.521	c0.287-0.008,0.509,0.202,0.521,0.478l1.259,29.215C23.163,78.108,25.137,80,27.554,80H58.5c0.276,0,0.5,0.224,0.5,0.5	S58.776,81,58.5,81z"/></svg>